<svg enable-background="new 0 0 64 64" height="64" viewBox="0 0 64 64" width="64" xmlns="http://www.w3.org/2000/svg"><path d="m64.001 59.993s-.007-.552-.092-1.417l-4.425 4.424h1.516c1.657 0 3-1.343 3-3 0-.003-.001-.005-.001-.007zm-15.899-.993h-8.102c-3.314 0-6-2.686-6-6s2.686-6 6-6h8.102c-.056-.327-.102-.657-.102-1 0-1.186.355-2.282.947-3.212-.609-.213-1.332-.486-2.247-.865-6.205-2.569-7.675-3.409-7.675-3.409l-.055-5.893s2.324-1.764 3.049-7.337c1.451.42 1.942-1.701 2.021-3.056.086-1.309.858-5.389-.917-5.025.363-2.724.648-5.187.52-6.491-.443-4.576-3.608-9.355-11.595-9.704-6.79.349-11.198 5.131-11.643 9.708-.128 1.304.133 3.764.496 6.493-1.774-.369-1.01 3.719-.932 5.027.086 1.355.566 3.482 2.02 3.062.722 5.574 3.046 7.353 3.046 7.353l-.058 5.924s-1.47.896-7.675 3.466c-6.205 2.574-4.259.533-9.314 3.047-7.988 3.974-7.988 14.906-7.988 14.906h.002c-.001.001-.002.004-.002.006 0 1.657 1.343 3 3 3h45.832c-.516-.885-.832-1.9-.832-3 0-.343.046-.673.102-1zm15.898-6c0-.828-.336-1.578-.879-2.121l-7-7c-.543-.543-1.293-.879-2.121-.879-1.657 0-3 1.343-3 3 0 .828.336 1.578.879 2.121l1.878 1.879h-13.757c-1.657 0-3 1.343-3 3s1.343 3 3 3h13.757l-1.879 1.879c-.542.543-.878 1.293-.878 2.121 0 1.657 1.343 3 3 3 .828 0 1.578-.336 2.121-.879l7-7c.543-.543.879-1.292.879-2.121z"/></svg>