<svg enable-background="new 0 0 64 64" height="64" viewBox="0 0 64 64" width="64" xmlns="http://www.w3.org/2000/svg"><path d="m34 53c0-1.657.672-3.157 1.757-4.242l7-7 .017.018c.379-.375.806-.702 1.272-.969-3.979-1.701-5.021-2.293-5.021-2.293l-.055-5.894s2.324-1.764 3.049-7.337c1.451.42 1.942-1.701 2.021-3.056.086-1.309.858-5.389-.917-5.025.363-2.724.648-5.187.52-6.491-.444-4.576-3.608-9.355-11.595-9.704-6.79.349-11.198 5.131-11.643 9.708-.128 1.304.133 3.764.496 6.493-1.774-.369-1.01 3.719-.932 5.027.086 1.355.566 3.482 2.02 3.062.722 5.574 3.046 7.352 3.046 7.352l-.058 5.925s-1.47.897-7.675 3.466c-6.205 2.574-4.259.533-9.314 3.047-7.988 3.975-7.988 14.906-7.988 14.906h.002c-.001.002-.002.005-.002.007 0 1.657 1.343 3 3 3h38.516l-5.758-5.758c-1.086-1.085-1.758-2.585-1.758-4.242zm18.898-6h5.828c-.789-.725-1.662-1.391-2.713-1.913-1.854-.923-2.765-1.246-3.482-1.415.302.715.469 1.502.469 2.328 0 .343-.046.673-.102 1zm-5.655 9h13.757c1.657 0 3-1.343 3-3s-1.343-3-3-3h-13.757l1.879-1.879c.542-.542.878-1.293.878-2.121 0-1.657-1.343-3-3-3-.828 0-1.578.336-2.121.879l-7 7c-.543.543-.879 1.293-.879 2.121 0 .829.336 1.578.879 2.121l7 7c.543.543 1.293.879 2.121.879 1.657 0 3-1.343 3-3 0-.828-.336-1.578-.879-2.121zm16.758 3.993s0-.679-.124-1.759c-.857.473-1.828.766-2.877.766h-8.104c.057.326.104.657.104 1 0 1.1-.316 2.114-.832 3h8.832c1.657 0 3-1.343 3-3 0-.003-.001-.005-.001-.007z"/></svg>